<svg t="1611027323749" class="icon" viewBox="0 0 1024 1024" version="1.1" xmlns="http://www.w3.org/2000/svg" p-id="2825"
     width="200" height="200">
  <path
    d="M1008.808064 284.16c-8.96-3.84-20.48-1.28-28.16 5.12L740.008064 528.64l-147.2-125.44c-10.24-8.96-24.32-7.68-34.56 1.28L344.488064 606.72l-90.88-72.96c-10.24-7.68-24.32-7.68-33.28 1.28L7.848064 737.28c-5.12 3.84-7.68 11.52-7.68 17.92v243.2c0 14.08 11.52 25.6 25.6 25.6h972.8c14.08 0 25.6-11.52 25.6-25.6V307.2c0-10.24-6.4-19.2-15.36-23.04zM972.968064 972.8H51.368064V766.72l186.88-179.2 90.88 72.96c10.24 7.68 24.32 7.68 33.28-1.28L576.168064 456.96l147.2 125.44c10.24 8.96 25.6 7.68 34.56-1.28L972.968064 368.64V972.8zM1024.168064 25.6v-5.12-2.56c0-1.28 0-1.28-1.28-2.56 0-1.28-1.28-1.28-1.28-2.56s-1.28-1.28-1.28-2.56c-1.28-1.28-1.28-2.56-2.56-2.56l-1.28-1.28c-1.28-1.28-2.56-2.56-3.84-2.56-1.28 0-1.28-1.28-2.56-1.28l-1.28-1.28c-1.28 0-2.56-1.28-3.84-1.28H896.168064c-14.08 0-25.6 11.52-25.6 25.6s11.52 25.6 25.6 25.6h40.96L740.008064 247.04 592.808064 121.6c-10.24-8.96-24.32-7.68-34.56 1.28L344.488064 325.12l-90.88-72.96c-10.24-7.68-24.32-7.68-33.28 1.28L7.848064 455.68c-10.24 10.24-10.24 25.6-1.28 35.84 5.12 5.12 12.8 7.68 19.2 7.68s12.8-2.56 17.92-7.68l194.56-186.88 90.88 72.96c10.24 7.68 24.32 7.68 33.28-1.28L576.168064 174.08l147.2 125.44c10.24 8.96 25.6 7.68 34.56-1.28L972.968064 87.04V128c0 14.08 11.52 25.6 25.6 25.6s25.6-11.52 25.6-25.6V25.6z"
     p-id="2826"></path>
</svg>
